M48
; DRILL file {KiCad (6.0.5)} date Sat Jun 25 15:42:25 2022
; FORMAT={-:-/ absolute / inch / decimal}
; #@! TF.CreationDate,2022-06-25T15:42:25-04:00
; #@! TF.GenerationSoftware,Kicad,Pcbnew,(6.0.5)
; #@! TF.FileFunction,Plated,1,2,PTH
FMAT,2
INCH
; #@! TA.AperFunction,Plated,PTH,ComponentDrill
T1C0.0394
%
G90
G05
T1
X5.25Y-2.0
X5.25Y-2.1
X5.25Y-2.2
X5.25Y-2.3
X5.25Y-2.6
X5.25Y-2.7
X5.25Y-2.8
X5.25Y-2.9
X5.25Y-3.0
X5.25Y-3.1
X5.25Y-3.2
X5.25Y-3.5
X5.25Y-3.6
X5.25Y-3.7
X5.25Y-3.8
X5.25Y-3.9
X5.25Y-4.0
X5.25Y-4.1
X5.25Y-4.2
X5.95Y-2.0
X5.95Y-2.1
X5.95Y-2.2
X5.95Y-2.3
X5.95Y-2.6
X5.95Y-2.7
X5.95Y-2.8
X5.95Y-2.9
X5.95Y-3.0
X5.95Y-3.1
X5.95Y-3.2
X5.95Y-3.5
X5.95Y-3.6
X5.95Y-3.7
X5.95Y-3.8
X5.95Y-3.9
X5.95Y-4.0
X5.95Y-4.1
X5.95Y-4.2
T0
M30
