%TF.GenerationSoftware,KiCad,Pcbnew,(6.0.5)*%
%TF.CreationDate,2022-06-25T15:42:17-04:00*%
%TF.ProjectId,Breakout_Converter,42726561-6b6f-4757-945f-436f6e766572,rev?*%
%TF.SameCoordinates,Original*%
%TF.FileFunction,Copper,L2,Bot*%
%TF.FilePolarity,Positive*%
%FSLAX46Y46*%
G04 Gerber Fmt 4.6, Leading zero omitted, Abs format (unit mm)*
G04 Created by KiCad (PCBNEW (6.0.5)) date 2022-06-25 15:42:17*
%MOMM*%
%LPD*%
G01*
G04 APERTURE LIST*
G04 Aperture macros list*
%AMRotRect*
0 Rectangle, with rotation*
0 The origin of the aperture is its center*
0 $1 length*
0 $2 width*
0 $3 Rotation angle, in degrees counterclockwise*
0 Add horizontal line*
21,1,$1,$2,0,0,$3*%
G04 Aperture macros list end*
%TA.AperFunction,SMDPad,CuDef*%
%ADD10RotRect,1.600000X0.550000X225.000000*%
%TD*%
%TA.AperFunction,SMDPad,CuDef*%
%ADD11RotRect,1.600000X0.550000X135.000000*%
%TD*%
%TA.AperFunction,ComponentPad*%
%ADD12O,1.700000X1.700000*%
%TD*%
%TA.AperFunction,ComponentPad*%
%ADD13C,1.700000*%
%TD*%
%TA.AperFunction,Conductor*%
%ADD14C,0.250000*%
%TD*%
G04 APERTURE END LIST*
D10*
%TO.P,U4,1,P1*%
%TO.N,Net-(U4-Pad1)*%
X143265305Y-68674897D03*
%TO.P,U4,2,P2*%
%TO.N,Net-(U4-Pad2)*%
X143830990Y-69240583D03*
%TO.P,U4,3,P3*%
%TO.N,Net-(U4-Pad3)*%
X144396676Y-69806268D03*
%TO.P,U4,4,P4*%
%TO.N,Net-(U4-Pad4)*%
X144962361Y-70371953D03*
%TO.P,U4,5,P5*%
%TO.N,Net-(U4-Pad5)*%
X145528047Y-70937639D03*
%TO.P,U4,6,P6*%
%TO.N,Net-(U4-Pad6)*%
X146093732Y-71503324D03*
%TO.P,U4,7,P7*%
%TO.N,Net-(U4-Pad7)*%
X146659417Y-72069010D03*
%TO.P,U4,8,P8*%
%TO.N,Net-(U4-Pad8)*%
X147225103Y-72634695D03*
D11*
%TO.P,U4,9,P9*%
%TO.N,Net-(U4-Pad9)*%
X147225103Y-74685305D03*
%TO.P,U4,10,P10*%
%TO.N,Net-(U4-Pad10)*%
X146659417Y-75250990D03*
%TO.P,U4,11,P11*%
%TO.N,Net-(U4-Pad11)*%
X146093732Y-75816676D03*
%TO.P,U4,12,P12*%
%TO.N,Net-(U4-Pad12)*%
X145528047Y-76382361D03*
%TO.P,U4,13,P13*%
%TO.N,Net-(U4-Pad13)*%
X144962361Y-76948047D03*
%TO.P,U4,14,P14*%
%TO.N,Net-(U4-Pad14)*%
X144396676Y-77513732D03*
%TO.P,U4,15,P15*%
%TO.N,Net-(U4-Pad15)*%
X143830990Y-78079417D03*
%TO.P,U4,16,P16*%
%TO.N,Net-(U4-Pad16)*%
X143265305Y-78645103D03*
D10*
%TO.P,U4,17,P17*%
%TO.N,Net-(U4-Pad17)*%
X141214695Y-78645103D03*
%TO.P,U4,18,P18*%
%TO.N,Net-(U4-Pad18)*%
X140649010Y-78079417D03*
%TO.P,U4,19,P19*%
%TO.N,Net-(U4-Pad19)*%
X140083324Y-77513732D03*
%TO.P,U4,20,P20*%
%TO.N,Net-(U4-Pad20)*%
X139517639Y-76948047D03*
%TO.P,U4,21,P21*%
%TO.N,Net-(U4-Pad21)*%
X138951953Y-76382361D03*
%TO.P,U4,22,P22*%
%TO.N,Net-(U4-Pad22)*%
X138386268Y-75816676D03*
%TO.P,U4,23,P23*%
%TO.N,Net-(U4-Pad23)*%
X137820583Y-75250990D03*
%TO.P,U4,24,P24*%
%TO.N,Net-(U4-Pad24)*%
X137254897Y-74685305D03*
D11*
%TO.P,U4,25,P25*%
%TO.N,Net-(U4-Pad25)*%
X137254897Y-72634695D03*
%TO.P,U4,26,P26*%
%TO.N,Net-(U4-Pad26)*%
X137820583Y-72069010D03*
%TO.P,U4,27,P27*%
%TO.N,Net-(U4-Pad27)*%
X138386268Y-71503324D03*
%TO.P,U4,28,P28*%
%TO.N,Net-(U4-Pad28)*%
X138951953Y-70937639D03*
%TO.P,U4,29,P29*%
%TO.N,Net-(U4-Pad29)*%
X139517639Y-70371953D03*
%TO.P,U4,30,P30*%
%TO.N,Net-(U4-Pad30)*%
X140083324Y-69806268D03*
%TO.P,U4,31,P31*%
%TO.N,Net-(U4-Pad31)*%
X140649010Y-69240583D03*
%TO.P,U4,32,P32*%
%TO.N,Net-(U4-Pad32)*%
X141214695Y-68674897D03*
%TD*%
D12*
%TO.P,J3,7,Pin_7*%
%TO.N,Net-(U4-Pad22)*%
X133350000Y-81280000D03*
%TO.P,J3,6,Pin_6*%
%TO.N,Net-(U4-Pad23)*%
X133350000Y-78740000D03*
%TO.P,J3,5,Pin_5*%
%TO.N,Net-(U4-Pad24)*%
X133350000Y-76200000D03*
%TO.P,J3,4,Pin_4*%
%TO.N,Net-(U4-Pad25)*%
X133350000Y-73660000D03*
%TO.P,J3,3,Pin_3*%
%TO.N,Net-(U4-Pad26)*%
X133350000Y-71120000D03*
%TO.P,J3,2,Pin_2*%
%TO.N,Net-(U4-Pad27)*%
X133350000Y-68580000D03*
D13*
%TO.P,J3,1,Pin_1*%
%TO.N,Net-(U4-Pad28)*%
X133350000Y-66040000D03*
%TD*%
%TO.P,J2,1,Pin_1*%
%TO.N,Net-(U4-Pad4)*%
X151130000Y-58419624D03*
D12*
%TO.P,J2,2,Pin_2*%
%TO.N,Net-(U4-Pad3)*%
X151130000Y-55879632D03*
%TO.P,J2,3,Pin_3*%
%TO.N,Net-(U4-Pad2)*%
X151130000Y-53339632D03*
%TO.P,J2,4,Pin_4*%
%TO.N,Net-(U4-Pad1)*%
X151130000Y-50799632D03*
%TD*%
%TO.P,J1,4,Pin_4*%
%TO.N,Net-(U4-Pad29)*%
X133350000Y-58419496D03*
%TO.P,J1,3,Pin_3*%
%TO.N,Net-(U4-Pad30)*%
X133350000Y-55879496D03*
%TO.P,J1,2,Pin_2*%
%TO.N,Net-(U4-Pad31)*%
X133350000Y-53339496D03*
D13*
%TO.P,J1,1,Pin_1*%
%TO.N,Net-(U4-Pad32)*%
X133350000Y-50799504D03*
%TD*%
D12*
%TO.P,J6,8,Pin_8*%
%TO.N,Net-(J6-Pad8)*%
X151130000Y-106680000D03*
%TO.P,J6,7,Pin_7*%
%TO.N,Net-(J6-Pad7)*%
X151130000Y-104140000D03*
%TO.P,J6,6,Pin_6*%
%TO.N,Net-(J6-Pad6)*%
X151130000Y-101600000D03*
%TO.P,J6,5,Pin_5*%
%TO.N,Net-(U4-Pad16)*%
X151130000Y-99060000D03*
%TO.P,J6,4,Pin_4*%
%TO.N,Net-(U4-Pad15)*%
X151130000Y-96520000D03*
%TO.P,J6,3,Pin_3*%
%TO.N,Net-(U4-Pad14)*%
X151130000Y-93980000D03*
%TO.P,J6,2,Pin_2*%
%TO.N,Net-(U4-Pad13)*%
X151130000Y-91440000D03*
D13*
%TO.P,J6,1,Pin_1*%
%TO.N,Net-(U4-Pad12)*%
X151130000Y-88900000D03*
%TD*%
D12*
%TO.P,J5,8,Pin_8*%
%TO.N,Net-(J5-Pad8)*%
X133350000Y-106680000D03*
%TO.P,J5,7,Pin_7*%
%TO.N,Net-(J5-Pad7)*%
X133350000Y-104140000D03*
%TO.P,J5,6,Pin_6*%
%TO.N,Net-(J5-Pad6)*%
X133350000Y-101600000D03*
%TO.P,J5,5,Pin_5*%
%TO.N,Net-(U4-Pad17)*%
X133350000Y-99060000D03*
%TO.P,J5,4,Pin_4*%
%TO.N,Net-(U4-Pad18)*%
X133350000Y-96520000D03*
%TO.P,J5,3,Pin_3*%
%TO.N,Net-(U4-Pad19)*%
X133350000Y-93980000D03*
%TO.P,J5,2,Pin_2*%
%TO.N,Net-(U4-Pad20)*%
X133350000Y-91440000D03*
D13*
%TO.P,J5,1,Pin_1*%
%TO.N,Net-(U4-Pad21)*%
X133350000Y-88900000D03*
%TD*%
D12*
%TO.P,J4,7,Pin_7*%
%TO.N,Net-(U4-Pad11)*%
X151130000Y-81280000D03*
%TO.P,J4,6,Pin_6*%
%TO.N,Net-(U4-Pad10)*%
X151130000Y-78740000D03*
%TO.P,J4,5,Pin_5*%
%TO.N,Net-(U4-Pad9)*%
X151130000Y-76200000D03*
%TO.P,J4,4,Pin_4*%
%TO.N,Net-(U4-Pad8)*%
X151130000Y-73660000D03*
%TO.P,J4,3,Pin_3*%
%TO.N,Net-(U4-Pad7)*%
X151130000Y-71120000D03*
%TO.P,J4,2,Pin_2*%
%TO.N,Net-(U4-Pad6)*%
X151130000Y-68580000D03*
D13*
%TO.P,J4,1,Pin_1*%
%TO.N,Net-(U4-Pad5)*%
X151130000Y-66040000D03*
%TD*%
D14*
%TO.N,Net-(U4-Pad22)*%
X134366000Y-81280000D02*
X133350000Y-81280000D01*
X136961280Y-78684720D02*
X134366000Y-81280000D01*
X136961280Y-77241664D02*
X136961280Y-78684720D01*
X138386268Y-75816676D02*
X136961280Y-77241664D01*
%TO.N,Net-(U4-Pad11)*%
X147518720Y-78684720D02*
X150114000Y-81280000D01*
X147518720Y-77241664D02*
X147518720Y-78684720D01*
X150114000Y-81280000D02*
X151130000Y-81280000D01*
X146093732Y-75816676D02*
X147518720Y-77241664D01*
%TO.N,Net-(U4-Pad24)*%
X137254897Y-74685305D02*
X135740202Y-76200000D01*
X135740202Y-76200000D02*
X133350000Y-76200000D01*
%TO.N,Net-(U4-Pad23)*%
X134331573Y-78740000D02*
X133350000Y-78740000D01*
X137820583Y-75250990D02*
X134331573Y-78740000D01*
%TO.N,Net-(U4-Pad10)*%
X146659417Y-75250990D02*
X150148427Y-78740000D01*
X150148427Y-78740000D02*
X151130000Y-78740000D01*
%TO.N,Net-(U4-Pad9)*%
X148739798Y-76200000D02*
X151130000Y-76200000D01*
X147225103Y-74685305D02*
X148739798Y-76200000D01*
%TO.N,Net-(U4-Pad5)*%
X150425686Y-66040000D02*
X151130000Y-66040000D01*
X145528047Y-70937639D02*
X150425686Y-66040000D01*
%TO.N,Net-(U4-Pad6)*%
X149017056Y-68580000D02*
X151130000Y-68580000D01*
X146093732Y-71503324D02*
X149017056Y-68580000D01*
%TO.N,Net-(U4-Pad28)*%
X134054314Y-66040000D02*
X133350000Y-66040000D01*
X138951953Y-70937639D02*
X134054314Y-66040000D01*
%TO.N,Net-(U4-Pad27)*%
X135462944Y-68580000D02*
X133350000Y-68580000D01*
X138386268Y-71503324D02*
X135462944Y-68580000D01*
%TO.N,Net-(U4-Pad7)*%
X150368000Y-70358000D02*
X151130000Y-71120000D01*
X148370427Y-70358000D02*
X150368000Y-70358000D01*
X146659417Y-72069010D02*
X148370427Y-70358000D01*
%TO.N,Net-(U4-Pad8)*%
X149352000Y-71882000D02*
X151130000Y-73660000D01*
X147225103Y-72634695D02*
X147977798Y-71882000D01*
X147977798Y-71882000D02*
X149352000Y-71882000D01*
%TO.N,Net-(U4-Pad26)*%
X134112000Y-70358000D02*
X133350000Y-71120000D01*
X136109573Y-70358000D02*
X134112000Y-70358000D01*
X137820583Y-72069010D02*
X136109573Y-70358000D01*
%TO.N,Net-(U4-Pad25)*%
X136502202Y-71882000D02*
X135128000Y-71882000D01*
X135128000Y-71882000D02*
X133350000Y-73660000D01*
X137254897Y-72634695D02*
X136502202Y-71882000D01*
%TO.N,Net-(U4-Pad13)*%
X146613280Y-78598966D02*
X146613280Y-86923280D01*
X144962361Y-76948047D02*
X146613280Y-78598966D01*
X146613280Y-86923280D02*
X151130000Y-91440000D01*
%TO.N,Net-(U4-Pad14)*%
X146160560Y-89010560D02*
X151130000Y-93980000D01*
X146160560Y-79277616D02*
X146160560Y-89010560D01*
X144396676Y-77513732D02*
X146160560Y-79277616D01*
%TO.N,Net-(U4-Pad15)*%
X145707840Y-91097840D02*
X151130000Y-96520000D01*
X145707840Y-79956267D02*
X145707840Y-91097840D01*
X143830990Y-78079417D02*
X145707840Y-79956267D01*
%TO.N,Net-(U4-Pad16)*%
X145255120Y-93185120D02*
X151130000Y-99060000D01*
X145255120Y-80634918D02*
X145255120Y-93185120D01*
X143265305Y-78645103D02*
X145255120Y-80634918D01*
%TO.N,Net-(U4-Pad21)*%
X137414000Y-84836000D02*
X133350000Y-88900000D01*
%TO.N,Net-(U4-Pad20)*%
X137866720Y-86923280D02*
X133350000Y-91440000D01*
X137866720Y-78598966D02*
X137866720Y-86923280D01*
X139517639Y-76948047D02*
X137866720Y-78598966D01*
%TO.N,Net-(U4-Pad19)*%
X138319439Y-89010561D02*
X133350000Y-93980000D01*
X138319439Y-79277617D02*
X138319439Y-89010561D01*
X140083324Y-77513732D02*
X138319439Y-79277617D01*
%TO.N,Net-(U4-Pad18)*%
X138772159Y-91097841D02*
X133350000Y-96520000D01*
X138772159Y-79956268D02*
X138772159Y-91097841D01*
X140649010Y-78079417D02*
X138772159Y-79956268D01*
%TO.N,Net-(U4-Pad17)*%
X139224879Y-80634919D02*
X139224879Y-93185121D01*
X141214695Y-78645103D02*
X139224879Y-80634919D01*
X139224879Y-93185121D02*
X133350000Y-99060000D01*
%TO.N,Net-(U4-Pad4)*%
X148987440Y-66346874D02*
X148987440Y-60562372D01*
X148987440Y-60562372D02*
X151130188Y-58419624D01*
X144962361Y-70371953D02*
X148987440Y-66346874D01*
%TO.N,Net-(U4-Pad3)*%
X148534720Y-58475096D02*
X151130184Y-55879632D01*
X148534720Y-65668224D02*
X148534720Y-58475096D01*
X144396676Y-69806268D02*
X148534720Y-65668224D01*
%TO.N,Net-(U4-Pad2)*%
X148082000Y-56388000D02*
X151130368Y-53339632D01*
X148082000Y-64989573D02*
X148082000Y-56388000D01*
X143830990Y-69240583D02*
X148082000Y-64989573D01*
%TO.N,Net-(U4-Pad1)*%
X147574000Y-54355816D02*
X151130184Y-50799632D01*
X147574000Y-64366202D02*
X147574000Y-54355816D01*
X143265305Y-68674897D02*
X147574000Y-64366202D01*
%TO.N,Net-(U4-Pad29)*%
X135492560Y-60562376D02*
X133349816Y-58419632D01*
X135492560Y-66404560D02*
X135492560Y-60562376D01*
X139459953Y-70371953D02*
X135492560Y-66404560D01*
X139517639Y-70371953D02*
X139459953Y-70371953D01*
%TO.N,Net-(U4-Pad30)*%
X135945280Y-58475280D02*
X133349632Y-55879632D01*
X135945280Y-65668224D02*
X135945280Y-58475280D01*
X140083324Y-69806268D02*
X135945280Y-65668224D01*
%TO.N,Net-(U4-Pad31)*%
X136398000Y-65024000D02*
X136398000Y-56387816D01*
X136398000Y-56387816D02*
X133349816Y-53339632D01*
X140614583Y-69240583D02*
X136398000Y-65024000D01*
X140649010Y-69240583D02*
X140614583Y-69240583D01*
%TO.N,Net-(U4-Pad32)*%
X136906000Y-64366202D02*
X136906000Y-54355820D01*
X141214695Y-68674897D02*
X136906000Y-64366202D01*
X136906000Y-54355820D02*
X133349820Y-50799640D01*
%TO.N,Net-(U4-Pad21)*%
X138951953Y-76440047D02*
X137414000Y-77978000D01*
X137414000Y-77978000D02*
X137414000Y-84836000D01*
X138951953Y-76382361D02*
X138951953Y-76440047D01*
%TO.N,Net-(U4-Pad12)*%
X147066000Y-84836000D02*
X151130000Y-88900000D01*
X147066000Y-77920314D02*
X147066000Y-84836000D01*
X145528047Y-76382361D02*
X147066000Y-77920314D01*
%TD*%
M02*
