%TF.GenerationSoftware,KiCad,Pcbnew,(6.0.5)*%
%TF.CreationDate,2022-06-25T15:42:17-04:00*%
%TF.ProjectId,Breakout_Converter,42726561-6b6f-4757-945f-436f6e766572,rev?*%
%TF.SameCoordinates,Original*%
%TF.FileFunction,Legend,Bot*%
%TF.FilePolarity,Positive*%
%FSLAX46Y46*%
G04 Gerber Fmt 4.6, Leading zero omitted, Abs format (unit mm)*
G04 Created by KiCad (PCBNEW (6.0.5)) date 2022-06-25 15:42:17*
%MOMM*%
%LPD*%
G01*
G04 APERTURE LIST*
%ADD10C,0.125000*%
%ADD11C,0.150000*%
G04 APERTURE END LIST*
D10*
X131925142Y-52889285D02*
X131460857Y-52889285D01*
X131710857Y-53175000D01*
X131603714Y-53175000D01*
X131532285Y-53210714D01*
X131496571Y-53246428D01*
X131460857Y-53317857D01*
X131460857Y-53496428D01*
X131496571Y-53567857D01*
X131532285Y-53603571D01*
X131603714Y-53639285D01*
X131818000Y-53639285D01*
X131889428Y-53603571D01*
X131925142Y-53567857D01*
X130746571Y-53639285D02*
X131175142Y-53639285D01*
X130960857Y-53639285D02*
X130960857Y-52889285D01*
X131032285Y-52996428D01*
X131103714Y-53067857D01*
X131175142Y-53103571D01*
X131925142Y-55489285D02*
X131460857Y-55489285D01*
X131710857Y-55775000D01*
X131603714Y-55775000D01*
X131532285Y-55810714D01*
X131496571Y-55846428D01*
X131460857Y-55917857D01*
X131460857Y-56096428D01*
X131496571Y-56167857D01*
X131532285Y-56203571D01*
X131603714Y-56239285D01*
X131818000Y-56239285D01*
X131889428Y-56203571D01*
X131925142Y-56167857D01*
X130996571Y-55489285D02*
X130925142Y-55489285D01*
X130853714Y-55525000D01*
X130818000Y-55560714D01*
X130782285Y-55632142D01*
X130746571Y-55775000D01*
X130746571Y-55953571D01*
X130782285Y-56096428D01*
X130818000Y-56167857D01*
X130853714Y-56203571D01*
X130925142Y-56239285D01*
X130996571Y-56239285D01*
X131068000Y-56203571D01*
X131103714Y-56167857D01*
X131139428Y-56096428D01*
X131175142Y-55953571D01*
X131175142Y-55775000D01*
X131139428Y-55632142D01*
X131103714Y-55560714D01*
X131068000Y-55525000D01*
X130996571Y-55489285D01*
X131925142Y-50389285D02*
X131460857Y-50389285D01*
X131710857Y-50675000D01*
X131603714Y-50675000D01*
X131532285Y-50710714D01*
X131496571Y-50746428D01*
X131460857Y-50817857D01*
X131460857Y-50996428D01*
X131496571Y-51067857D01*
X131532285Y-51103571D01*
X131603714Y-51139285D01*
X131818000Y-51139285D01*
X131889428Y-51103571D01*
X131925142Y-51067857D01*
X131175142Y-50460714D02*
X131139428Y-50425000D01*
X131068000Y-50389285D01*
X130889428Y-50389285D01*
X130818000Y-50425000D01*
X130782285Y-50460714D01*
X130746571Y-50532142D01*
X130746571Y-50603571D01*
X130782285Y-50710714D01*
X131210857Y-51139285D01*
X130746571Y-51139285D01*
X131889428Y-58060714D02*
X131853714Y-58025000D01*
X131782285Y-57989285D01*
X131603714Y-57989285D01*
X131532285Y-58025000D01*
X131496571Y-58060714D01*
X131460857Y-58132142D01*
X131460857Y-58203571D01*
X131496571Y-58310714D01*
X131925142Y-58739285D01*
X131460857Y-58739285D01*
X131103714Y-58739285D02*
X130960857Y-58739285D01*
X130889428Y-58703571D01*
X130853714Y-58667857D01*
X130782285Y-58560714D01*
X130746571Y-58417857D01*
X130746571Y-58132142D01*
X130782285Y-58060714D01*
X130818000Y-58025000D01*
X130889428Y-57989285D01*
X131032285Y-57989285D01*
X131103714Y-58025000D01*
X131139428Y-58060714D01*
X131175142Y-58132142D01*
X131175142Y-58310714D01*
X131139428Y-58382142D01*
X131103714Y-58417857D01*
X131032285Y-58453571D01*
X130889428Y-58453571D01*
X130818000Y-58417857D01*
X130782285Y-58382142D01*
X130746571Y-58310714D01*
X153376285Y-53000714D02*
X153340571Y-52965000D01*
X153269142Y-52929285D01*
X153090571Y-52929285D01*
X153019142Y-52965000D01*
X152983428Y-53000714D01*
X152947714Y-53072142D01*
X152947714Y-53143571D01*
X152983428Y-53250714D01*
X153412000Y-53679285D01*
X152947714Y-53679285D01*
X153019142Y-58279285D02*
X153019142Y-58779285D01*
X153197714Y-57993571D02*
X153376285Y-58529285D01*
X152912000Y-58529285D01*
X152947714Y-51179285D02*
X153376285Y-51179285D01*
X153162000Y-51179285D02*
X153162000Y-50429285D01*
X153233428Y-50536428D01*
X153304857Y-50607857D01*
X153376285Y-50643571D01*
X153412000Y-55529285D02*
X152947714Y-55529285D01*
X153197714Y-55815000D01*
X153090571Y-55815000D01*
X153019142Y-55850714D01*
X152983428Y-55886428D01*
X152947714Y-55957857D01*
X152947714Y-56136428D01*
X152983428Y-56207857D01*
X153019142Y-56243571D01*
X153090571Y-56279285D01*
X153304857Y-56279285D01*
X153376285Y-56243571D01*
X153412000Y-56207857D01*
X131889428Y-70800714D02*
X131853714Y-70765000D01*
X131782285Y-70729285D01*
X131603714Y-70729285D01*
X131532285Y-70765000D01*
X131496571Y-70800714D01*
X131460857Y-70872142D01*
X131460857Y-70943571D01*
X131496571Y-71050714D01*
X131925142Y-71479285D01*
X131460857Y-71479285D01*
X130818000Y-70729285D02*
X130960857Y-70729285D01*
X131032285Y-70765000D01*
X131068000Y-70800714D01*
X131139428Y-70907857D01*
X131175142Y-71050714D01*
X131175142Y-71336428D01*
X131139428Y-71407857D01*
X131103714Y-71443571D01*
X131032285Y-71479285D01*
X130889428Y-71479285D01*
X130818000Y-71443571D01*
X130782285Y-71407857D01*
X130746571Y-71336428D01*
X130746571Y-71157857D01*
X130782285Y-71086428D01*
X130818000Y-71050714D01*
X130889428Y-71015000D01*
X131032285Y-71015000D01*
X131103714Y-71050714D01*
X131139428Y-71086428D01*
X131175142Y-71157857D01*
X131889428Y-73300714D02*
X131853714Y-73265000D01*
X131782285Y-73229285D01*
X131603714Y-73229285D01*
X131532285Y-73265000D01*
X131496571Y-73300714D01*
X131460857Y-73372142D01*
X131460857Y-73443571D01*
X131496571Y-73550714D01*
X131925142Y-73979285D01*
X131460857Y-73979285D01*
X130782285Y-73229285D02*
X131139428Y-73229285D01*
X131175142Y-73586428D01*
X131139428Y-73550714D01*
X131068000Y-73515000D01*
X130889428Y-73515000D01*
X130818000Y-73550714D01*
X130782285Y-73586428D01*
X130746571Y-73657857D01*
X130746571Y-73836428D01*
X130782285Y-73907857D01*
X130818000Y-73943571D01*
X130889428Y-73979285D01*
X131068000Y-73979285D01*
X131139428Y-73943571D01*
X131175142Y-73907857D01*
X131889428Y-78400714D02*
X131853714Y-78365000D01*
X131782285Y-78329285D01*
X131603714Y-78329285D01*
X131532285Y-78365000D01*
X131496571Y-78400714D01*
X131460857Y-78472142D01*
X131460857Y-78543571D01*
X131496571Y-78650714D01*
X131925142Y-79079285D01*
X131460857Y-79079285D01*
X131210857Y-78329285D02*
X130746571Y-78329285D01*
X130996571Y-78615000D01*
X130889428Y-78615000D01*
X130818000Y-78650714D01*
X130782285Y-78686428D01*
X130746571Y-78757857D01*
X130746571Y-78936428D01*
X130782285Y-79007857D01*
X130818000Y-79043571D01*
X130889428Y-79079285D01*
X131103714Y-79079285D01*
X131175142Y-79043571D01*
X131210857Y-79007857D01*
X131889428Y-68300714D02*
X131853714Y-68265000D01*
X131782285Y-68229285D01*
X131603714Y-68229285D01*
X131532285Y-68265000D01*
X131496571Y-68300714D01*
X131460857Y-68372142D01*
X131460857Y-68443571D01*
X131496571Y-68550714D01*
X131925142Y-68979285D01*
X131460857Y-68979285D01*
X131210857Y-68229285D02*
X130710857Y-68229285D01*
X131032285Y-68979285D01*
X131889428Y-75900714D02*
X131853714Y-75865000D01*
X131782285Y-75829285D01*
X131603714Y-75829285D01*
X131532285Y-75865000D01*
X131496571Y-75900714D01*
X131460857Y-75972142D01*
X131460857Y-76043571D01*
X131496571Y-76150714D01*
X131925142Y-76579285D01*
X131460857Y-76579285D01*
X130818000Y-76079285D02*
X130818000Y-76579285D01*
X130996571Y-75793571D02*
X131175142Y-76329285D01*
X130710857Y-76329285D01*
X131889428Y-81000714D02*
X131853714Y-80965000D01*
X131782285Y-80929285D01*
X131603714Y-80929285D01*
X131532285Y-80965000D01*
X131496571Y-81000714D01*
X131460857Y-81072142D01*
X131460857Y-81143571D01*
X131496571Y-81250714D01*
X131925142Y-81679285D01*
X131460857Y-81679285D01*
X131175142Y-81000714D02*
X131139428Y-80965000D01*
X131068000Y-80929285D01*
X130889428Y-80929285D01*
X130818000Y-80965000D01*
X130782285Y-81000714D01*
X130746571Y-81072142D01*
X130746571Y-81143571D01*
X130782285Y-81250714D01*
X131210857Y-81679285D01*
X130746571Y-81679285D01*
X131889428Y-65700714D02*
X131853714Y-65665000D01*
X131782285Y-65629285D01*
X131603714Y-65629285D01*
X131532285Y-65665000D01*
X131496571Y-65700714D01*
X131460857Y-65772142D01*
X131460857Y-65843571D01*
X131496571Y-65950714D01*
X131925142Y-66379285D01*
X131460857Y-66379285D01*
X131032285Y-65950714D02*
X131103714Y-65915000D01*
X131139428Y-65879285D01*
X131175142Y-65807857D01*
X131175142Y-65772142D01*
X131139428Y-65700714D01*
X131103714Y-65665000D01*
X131032285Y-65629285D01*
X130889428Y-65629285D01*
X130818000Y-65665000D01*
X130782285Y-65700714D01*
X130746571Y-65772142D01*
X130746571Y-65807857D01*
X130782285Y-65879285D01*
X130818000Y-65915000D01*
X130889428Y-65950714D01*
X131032285Y-65950714D01*
X131103714Y-65986428D01*
X131139428Y-66022142D01*
X131175142Y-66093571D01*
X131175142Y-66236428D01*
X131139428Y-66307857D01*
X131103714Y-66343571D01*
X131032285Y-66379285D01*
X130889428Y-66379285D01*
X130818000Y-66343571D01*
X130782285Y-66307857D01*
X130746571Y-66236428D01*
X130746571Y-66093571D01*
X130782285Y-66022142D01*
X130818000Y-65986428D01*
X130889428Y-65950714D01*
X153304857Y-81619285D02*
X153733428Y-81619285D01*
X153519142Y-81619285D02*
X153519142Y-80869285D01*
X153590571Y-80976428D01*
X153662000Y-81047857D01*
X153733428Y-81083571D01*
X152590571Y-81619285D02*
X153019142Y-81619285D01*
X152804857Y-81619285D02*
X152804857Y-80869285D01*
X152876285Y-80976428D01*
X152947714Y-81047857D01*
X153019142Y-81083571D01*
X153019142Y-68169285D02*
X153162000Y-68169285D01*
X153233428Y-68205000D01*
X153269142Y-68240714D01*
X153340571Y-68347857D01*
X153376285Y-68490714D01*
X153376285Y-68776428D01*
X153340571Y-68847857D01*
X153304857Y-68883571D01*
X153233428Y-68919285D01*
X153090571Y-68919285D01*
X153019142Y-68883571D01*
X152983428Y-68847857D01*
X152947714Y-68776428D01*
X152947714Y-68597857D01*
X152983428Y-68526428D01*
X153019142Y-68490714D01*
X153090571Y-68455000D01*
X153233428Y-68455000D01*
X153304857Y-68490714D01*
X153340571Y-68526428D01*
X153376285Y-68597857D01*
X153412000Y-70669285D02*
X152912000Y-70669285D01*
X153233428Y-71419285D01*
X153304857Y-76519285D02*
X153162000Y-76519285D01*
X153090571Y-76483571D01*
X153054857Y-76447857D01*
X152983428Y-76340714D01*
X152947714Y-76197857D01*
X152947714Y-75912142D01*
X152983428Y-75840714D01*
X153019142Y-75805000D01*
X153090571Y-75769285D01*
X153233428Y-75769285D01*
X153304857Y-75805000D01*
X153340571Y-75840714D01*
X153376285Y-75912142D01*
X153376285Y-76090714D01*
X153340571Y-76162142D01*
X153304857Y-76197857D01*
X153233428Y-76233571D01*
X153090571Y-76233571D01*
X153019142Y-76197857D01*
X152983428Y-76162142D01*
X152947714Y-76090714D01*
X152983428Y-65669285D02*
X153340571Y-65669285D01*
X153376285Y-66026428D01*
X153340571Y-65990714D01*
X153269142Y-65955000D01*
X153090571Y-65955000D01*
X153019142Y-65990714D01*
X152983428Y-66026428D01*
X152947714Y-66097857D01*
X152947714Y-66276428D01*
X152983428Y-66347857D01*
X153019142Y-66383571D01*
X153090571Y-66419285D01*
X153269142Y-66419285D01*
X153340571Y-66383571D01*
X153376285Y-66347857D01*
X153233428Y-73590714D02*
X153304857Y-73555000D01*
X153340571Y-73519285D01*
X153376285Y-73447857D01*
X153376285Y-73412142D01*
X153340571Y-73340714D01*
X153304857Y-73305000D01*
X153233428Y-73269285D01*
X153090571Y-73269285D01*
X153019142Y-73305000D01*
X152983428Y-73340714D01*
X152947714Y-73412142D01*
X152947714Y-73447857D01*
X152983428Y-73519285D01*
X153019142Y-73555000D01*
X153090571Y-73590714D01*
X153233428Y-73590714D01*
X153304857Y-73626428D01*
X153340571Y-73662142D01*
X153376285Y-73733571D01*
X153376285Y-73876428D01*
X153340571Y-73947857D01*
X153304857Y-73983571D01*
X153233428Y-74019285D01*
X153090571Y-74019285D01*
X153019142Y-73983571D01*
X152983428Y-73947857D01*
X152947714Y-73876428D01*
X152947714Y-73733571D01*
X152983428Y-73662142D01*
X153019142Y-73626428D01*
X153090571Y-73590714D01*
X153304857Y-79119285D02*
X153733428Y-79119285D01*
X153519142Y-79119285D02*
X153519142Y-78369285D01*
X153590571Y-78476428D01*
X153662000Y-78547857D01*
X153733428Y-78583571D01*
X152840571Y-78369285D02*
X152769142Y-78369285D01*
X152697714Y-78405000D01*
X152662000Y-78440714D01*
X152626285Y-78512142D01*
X152590571Y-78655000D01*
X152590571Y-78833571D01*
X152626285Y-78976428D01*
X152662000Y-79047857D01*
X152697714Y-79083571D01*
X152769142Y-79119285D01*
X152840571Y-79119285D01*
X152912000Y-79083571D01*
X152947714Y-79047857D01*
X152983428Y-78976428D01*
X153019142Y-78833571D01*
X153019142Y-78655000D01*
X152983428Y-78512142D01*
X152947714Y-78440714D01*
X152912000Y-78405000D01*
X152840571Y-78369285D01*
X153751285Y-107039285D02*
X153751285Y-106289285D01*
X153322714Y-107039285D01*
X153322714Y-106289285D01*
X152537000Y-106967857D02*
X152572714Y-107003571D01*
X152679857Y-107039285D01*
X152751285Y-107039285D01*
X152858428Y-107003571D01*
X152929857Y-106932142D01*
X152965571Y-106860714D01*
X153001285Y-106717857D01*
X153001285Y-106610714D01*
X152965571Y-106467857D01*
X152929857Y-106396428D01*
X152858428Y-106325000D01*
X152751285Y-106289285D01*
X152679857Y-106289285D01*
X152572714Y-106325000D01*
X152537000Y-106360714D01*
X153304857Y-96839285D02*
X153733428Y-96839285D01*
X153519142Y-96839285D02*
X153519142Y-96089285D01*
X153590571Y-96196428D01*
X153662000Y-96267857D01*
X153733428Y-96303571D01*
X152626285Y-96089285D02*
X152983428Y-96089285D01*
X153019142Y-96446428D01*
X152983428Y-96410714D01*
X152912000Y-96375000D01*
X152733428Y-96375000D01*
X152662000Y-96410714D01*
X152626285Y-96446428D01*
X152590571Y-96517857D01*
X152590571Y-96696428D01*
X152626285Y-96767857D01*
X152662000Y-96803571D01*
X152733428Y-96839285D01*
X152912000Y-96839285D01*
X152983428Y-96803571D01*
X153019142Y-96767857D01*
X153304857Y-94339285D02*
X153733428Y-94339285D01*
X153519142Y-94339285D02*
X153519142Y-93589285D01*
X153590571Y-93696428D01*
X153662000Y-93767857D01*
X153733428Y-93803571D01*
X152662000Y-93839285D02*
X152662000Y-94339285D01*
X152840571Y-93553571D02*
X153019142Y-94089285D01*
X152554857Y-94089285D01*
X153751285Y-101939285D02*
X153751285Y-101189285D01*
X153322714Y-101939285D01*
X153322714Y-101189285D01*
X152537000Y-101867857D02*
X152572714Y-101903571D01*
X152679857Y-101939285D01*
X152751285Y-101939285D01*
X152858428Y-101903571D01*
X152929857Y-101832142D01*
X152965571Y-101760714D01*
X153001285Y-101617857D01*
X153001285Y-101510714D01*
X152965571Y-101367857D01*
X152929857Y-101296428D01*
X152858428Y-101225000D01*
X152751285Y-101189285D01*
X152679857Y-101189285D01*
X152572714Y-101225000D01*
X152537000Y-101260714D01*
X153304857Y-91839285D02*
X153733428Y-91839285D01*
X153519142Y-91839285D02*
X153519142Y-91089285D01*
X153590571Y-91196428D01*
X153662000Y-91267857D01*
X153733428Y-91303571D01*
X153054857Y-91089285D02*
X152590571Y-91089285D01*
X152840571Y-91375000D01*
X152733428Y-91375000D01*
X152662000Y-91410714D01*
X152626285Y-91446428D01*
X152590571Y-91517857D01*
X152590571Y-91696428D01*
X152626285Y-91767857D01*
X152662000Y-91803571D01*
X152733428Y-91839285D01*
X152947714Y-91839285D01*
X153019142Y-91803571D01*
X153054857Y-91767857D01*
X153304857Y-99439285D02*
X153733428Y-99439285D01*
X153519142Y-99439285D02*
X153519142Y-98689285D01*
X153590571Y-98796428D01*
X153662000Y-98867857D01*
X153733428Y-98903571D01*
X152662000Y-98689285D02*
X152804857Y-98689285D01*
X152876285Y-98725000D01*
X152912000Y-98760714D01*
X152983428Y-98867857D01*
X153019142Y-99010714D01*
X153019142Y-99296428D01*
X152983428Y-99367857D01*
X152947714Y-99403571D01*
X152876285Y-99439285D01*
X152733428Y-99439285D01*
X152662000Y-99403571D01*
X152626285Y-99367857D01*
X152590571Y-99296428D01*
X152590571Y-99117857D01*
X152626285Y-99046428D01*
X152662000Y-99010714D01*
X152733428Y-98975000D01*
X152876285Y-98975000D01*
X152947714Y-99010714D01*
X152983428Y-99046428D01*
X153019142Y-99117857D01*
X153751285Y-104539285D02*
X153751285Y-103789285D01*
X153322714Y-104539285D01*
X153322714Y-103789285D01*
X152537000Y-104467857D02*
X152572714Y-104503571D01*
X152679857Y-104539285D01*
X152751285Y-104539285D01*
X152858428Y-104503571D01*
X152929857Y-104432142D01*
X152965571Y-104360714D01*
X153001285Y-104217857D01*
X153001285Y-104110714D01*
X152965571Y-103967857D01*
X152929857Y-103896428D01*
X152858428Y-103825000D01*
X152751285Y-103789285D01*
X152679857Y-103789285D01*
X152572714Y-103825000D01*
X152537000Y-103860714D01*
X153304857Y-89239285D02*
X153733428Y-89239285D01*
X153519142Y-89239285D02*
X153519142Y-88489285D01*
X153590571Y-88596428D01*
X153662000Y-88667857D01*
X153733428Y-88703571D01*
X153019142Y-88560714D02*
X152983428Y-88525000D01*
X152912000Y-88489285D01*
X152733428Y-88489285D01*
X152662000Y-88525000D01*
X152626285Y-88560714D01*
X152590571Y-88632142D01*
X152590571Y-88703571D01*
X152626285Y-88810714D01*
X153054857Y-89239285D01*
X152590571Y-89239285D01*
X131460857Y-94339285D02*
X131889428Y-94339285D01*
X131675142Y-94339285D02*
X131675142Y-93589285D01*
X131746571Y-93696428D01*
X131818000Y-93767857D01*
X131889428Y-93803571D01*
X131103714Y-94339285D02*
X130960857Y-94339285D01*
X130889428Y-94303571D01*
X130853714Y-94267857D01*
X130782285Y-94160714D01*
X130746571Y-94017857D01*
X130746571Y-93732142D01*
X130782285Y-93660714D01*
X130818000Y-93625000D01*
X130889428Y-93589285D01*
X131032285Y-93589285D01*
X131103714Y-93625000D01*
X131139428Y-93660714D01*
X131175142Y-93732142D01*
X131175142Y-93910714D01*
X131139428Y-93982142D01*
X131103714Y-94017857D01*
X131032285Y-94053571D01*
X130889428Y-94053571D01*
X130818000Y-94017857D01*
X130782285Y-93982142D01*
X130746571Y-93910714D01*
X131907285Y-101939285D02*
X131907285Y-101189285D01*
X131478714Y-101939285D01*
X131478714Y-101189285D01*
X130693000Y-101867857D02*
X130728714Y-101903571D01*
X130835857Y-101939285D01*
X130907285Y-101939285D01*
X131014428Y-101903571D01*
X131085857Y-101832142D01*
X131121571Y-101760714D01*
X131157285Y-101617857D01*
X131157285Y-101510714D01*
X131121571Y-101367857D01*
X131085857Y-101296428D01*
X131014428Y-101225000D01*
X130907285Y-101189285D01*
X130835857Y-101189285D01*
X130728714Y-101225000D01*
X130693000Y-101260714D01*
X131460857Y-96839285D02*
X131889428Y-96839285D01*
X131675142Y-96839285D02*
X131675142Y-96089285D01*
X131746571Y-96196428D01*
X131818000Y-96267857D01*
X131889428Y-96303571D01*
X131032285Y-96410714D02*
X131103714Y-96375000D01*
X131139428Y-96339285D01*
X131175142Y-96267857D01*
X131175142Y-96232142D01*
X131139428Y-96160714D01*
X131103714Y-96125000D01*
X131032285Y-96089285D01*
X130889428Y-96089285D01*
X130818000Y-96125000D01*
X130782285Y-96160714D01*
X130746571Y-96232142D01*
X130746571Y-96267857D01*
X130782285Y-96339285D01*
X130818000Y-96375000D01*
X130889428Y-96410714D01*
X131032285Y-96410714D01*
X131103714Y-96446428D01*
X131139428Y-96482142D01*
X131175142Y-96553571D01*
X131175142Y-96696428D01*
X131139428Y-96767857D01*
X131103714Y-96803571D01*
X131032285Y-96839285D01*
X130889428Y-96839285D01*
X130818000Y-96803571D01*
X130782285Y-96767857D01*
X130746571Y-96696428D01*
X130746571Y-96553571D01*
X130782285Y-96482142D01*
X130818000Y-96446428D01*
X130889428Y-96410714D01*
X131889428Y-88560714D02*
X131853714Y-88525000D01*
X131782285Y-88489285D01*
X131603714Y-88489285D01*
X131532285Y-88525000D01*
X131496571Y-88560714D01*
X131460857Y-88632142D01*
X131460857Y-88703571D01*
X131496571Y-88810714D01*
X131925142Y-89239285D01*
X131460857Y-89239285D01*
X130746571Y-89239285D02*
X131175142Y-89239285D01*
X130960857Y-89239285D02*
X130960857Y-88489285D01*
X131032285Y-88596428D01*
X131103714Y-88667857D01*
X131175142Y-88703571D01*
X131907285Y-107039285D02*
X131907285Y-106289285D01*
X131478714Y-107039285D01*
X131478714Y-106289285D01*
X130693000Y-106967857D02*
X130728714Y-107003571D01*
X130835857Y-107039285D01*
X130907285Y-107039285D01*
X131014428Y-107003571D01*
X131085857Y-106932142D01*
X131121571Y-106860714D01*
X131157285Y-106717857D01*
X131157285Y-106610714D01*
X131121571Y-106467857D01*
X131085857Y-106396428D01*
X131014428Y-106325000D01*
X130907285Y-106289285D01*
X130835857Y-106289285D01*
X130728714Y-106325000D01*
X130693000Y-106360714D01*
X131907285Y-104539285D02*
X131907285Y-103789285D01*
X131478714Y-104539285D01*
X131478714Y-103789285D01*
X130693000Y-104467857D02*
X130728714Y-104503571D01*
X130835857Y-104539285D01*
X130907285Y-104539285D01*
X131014428Y-104503571D01*
X131085857Y-104432142D01*
X131121571Y-104360714D01*
X131157285Y-104217857D01*
X131157285Y-104110714D01*
X131121571Y-103967857D01*
X131085857Y-103896428D01*
X131014428Y-103825000D01*
X130907285Y-103789285D01*
X130835857Y-103789285D01*
X130728714Y-103825000D01*
X130693000Y-103860714D01*
X131460857Y-99439285D02*
X131889428Y-99439285D01*
X131675142Y-99439285D02*
X131675142Y-98689285D01*
X131746571Y-98796428D01*
X131818000Y-98867857D01*
X131889428Y-98903571D01*
X131210857Y-98689285D02*
X130710857Y-98689285D01*
X131032285Y-99439285D01*
X131889428Y-91160714D02*
X131853714Y-91125000D01*
X131782285Y-91089285D01*
X131603714Y-91089285D01*
X131532285Y-91125000D01*
X131496571Y-91160714D01*
X131460857Y-91232142D01*
X131460857Y-91303571D01*
X131496571Y-91410714D01*
X131925142Y-91839285D01*
X131460857Y-91839285D01*
X130996571Y-91089285D02*
X130925142Y-91089285D01*
X130853714Y-91125000D01*
X130818000Y-91160714D01*
X130782285Y-91232142D01*
X130746571Y-91375000D01*
X130746571Y-91553571D01*
X130782285Y-91696428D01*
X130818000Y-91767857D01*
X130853714Y-91803571D01*
X130925142Y-91839285D01*
X130996571Y-91839285D01*
X131068000Y-91803571D01*
X131103714Y-91767857D01*
X131139428Y-91696428D01*
X131175142Y-91553571D01*
X131175142Y-91375000D01*
X131139428Y-91232142D01*
X131103714Y-91160714D01*
X131068000Y-91125000D01*
X130996571Y-91089285D01*
D11*
X144787619Y-63460380D02*
X144120952Y-63460380D01*
X144549523Y-64460380D01*
X143835238Y-64460380D02*
X143311428Y-63793714D01*
X143835238Y-63793714D02*
X143311428Y-64460380D01*
X143025714Y-63460380D02*
X142359047Y-63460380D01*
X142787619Y-64460380D01*
X141978095Y-64460380D02*
X141978095Y-63793714D01*
X141978095Y-63888952D02*
X141930476Y-63841333D01*
X141835238Y-63793714D01*
X141692380Y-63793714D01*
X141597142Y-63841333D01*
X141549523Y-63936571D01*
X141549523Y-64460380D01*
X141549523Y-63936571D02*
X141501904Y-63841333D01*
X141406666Y-63793714D01*
X141263809Y-63793714D01*
X141168571Y-63841333D01*
X141120952Y-63936571D01*
X141120952Y-64460380D01*
X140644761Y-64460380D02*
X140644761Y-63793714D01*
X140644761Y-63888952D02*
X140597142Y-63841333D01*
X140501904Y-63793714D01*
X140359047Y-63793714D01*
X140263809Y-63841333D01*
X140216190Y-63936571D01*
X140216190Y-64460380D01*
X140216190Y-63936571D02*
X140168571Y-63841333D01*
X140073333Y-63793714D01*
X139930476Y-63793714D01*
X139835238Y-63841333D01*
X139787619Y-63936571D01*
X139787619Y-64460380D01*
X149606666Y-64984380D02*
X149035238Y-64984380D01*
X149320952Y-65984380D02*
X149320952Y-64984380D01*
X148035238Y-66079619D02*
X148130476Y-66032000D01*
X148225714Y-65936761D01*
X148368571Y-65793904D01*
X148463809Y-65746285D01*
X148559047Y-65746285D01*
X148511428Y-65984380D02*
X148606666Y-65936761D01*
X148701904Y-65841523D01*
X148749523Y-65651047D01*
X148749523Y-65317714D01*
X148701904Y-65127238D01*
X148606666Y-65032000D01*
X148511428Y-64984380D01*
X148320952Y-64984380D01*
X148225714Y-65032000D01*
X148130476Y-65127238D01*
X148082857Y-65317714D01*
X148082857Y-65651047D01*
X148130476Y-65841523D01*
X148225714Y-65936761D01*
X148320952Y-65984380D01*
X148511428Y-65984380D01*
X147320952Y-65460571D02*
X147654285Y-65460571D01*
X147654285Y-65984380D02*
X147654285Y-64984380D01*
X147178095Y-64984380D01*
X146797142Y-65984380D02*
X146797142Y-64984380D01*
X146416190Y-64984380D01*
X146320952Y-65032000D01*
X146273333Y-65079619D01*
X146225714Y-65174857D01*
X146225714Y-65317714D01*
X146273333Y-65412952D01*
X146320952Y-65460571D01*
X146416190Y-65508190D01*
X146797142Y-65508190D01*
X145797142Y-65603428D02*
X145035238Y-65603428D01*
X144654285Y-64984380D02*
X144035238Y-64984380D01*
X144368571Y-65365333D01*
X144225714Y-65365333D01*
X144130476Y-65412952D01*
X144082857Y-65460571D01*
X144035238Y-65555809D01*
X144035238Y-65793904D01*
X144082857Y-65889142D01*
X144130476Y-65936761D01*
X144225714Y-65984380D01*
X144511428Y-65984380D01*
X144606666Y-65936761D01*
X144654285Y-65889142D01*
X143654285Y-65079619D02*
X143606666Y-65032000D01*
X143511428Y-64984380D01*
X143273333Y-64984380D01*
X143178095Y-65032000D01*
X143130476Y-65079619D01*
X143082857Y-65174857D01*
X143082857Y-65270095D01*
X143130476Y-65412952D01*
X143701904Y-65984380D01*
X143082857Y-65984380D01*
X141701904Y-64984380D02*
X141606666Y-64984380D01*
X141511428Y-65032000D01*
X141463809Y-65079619D01*
X141416190Y-65174857D01*
X141368571Y-65365333D01*
X141368571Y-65603428D01*
X141416190Y-65793904D01*
X141463809Y-65889142D01*
X141511428Y-65936761D01*
X141606666Y-65984380D01*
X141701904Y-65984380D01*
X141797142Y-65936761D01*
X141844761Y-65889142D01*
X141892380Y-65793904D01*
X141940000Y-65603428D01*
X141940000Y-65365333D01*
X141892380Y-65174857D01*
X141844761Y-65079619D01*
X141797142Y-65032000D01*
X141701904Y-64984380D01*
X140940000Y-65889142D02*
X140892380Y-65936761D01*
X140940000Y-65984380D01*
X140987619Y-65936761D01*
X140940000Y-65889142D01*
X140940000Y-65984380D01*
X140320952Y-65412952D02*
X140416190Y-65365333D01*
X140463809Y-65317714D01*
X140511428Y-65222476D01*
X140511428Y-65174857D01*
X140463809Y-65079619D01*
X140416190Y-65032000D01*
X140320952Y-64984380D01*
X140130476Y-64984380D01*
X140035238Y-65032000D01*
X139987619Y-65079619D01*
X139940000Y-65174857D01*
X139940000Y-65222476D01*
X139987619Y-65317714D01*
X140035238Y-65365333D01*
X140130476Y-65412952D01*
X140320952Y-65412952D01*
X140416190Y-65460571D01*
X140463809Y-65508190D01*
X140511428Y-65603428D01*
X140511428Y-65793904D01*
X140463809Y-65889142D01*
X140416190Y-65936761D01*
X140320952Y-65984380D01*
X140130476Y-65984380D01*
X140035238Y-65936761D01*
X139987619Y-65889142D01*
X139940000Y-65793904D01*
X139940000Y-65603428D01*
X139987619Y-65508190D01*
X140035238Y-65460571D01*
X140130476Y-65412952D01*
X138749523Y-65984380D02*
X138749523Y-64984380D01*
X138368571Y-64984380D01*
X138273333Y-65032000D01*
X138225714Y-65079619D01*
X138178095Y-65174857D01*
X138178095Y-65317714D01*
X138225714Y-65412952D01*
X138273333Y-65460571D01*
X138368571Y-65508190D01*
X138749523Y-65508190D01*
X137749523Y-65984380D02*
X137749523Y-65317714D01*
X137749523Y-64984380D02*
X137797142Y-65032000D01*
X137749523Y-65079619D01*
X137701904Y-65032000D01*
X137749523Y-64984380D01*
X137749523Y-65079619D01*
X137416190Y-65317714D02*
X137035238Y-65317714D01*
X137273333Y-64984380D02*
X137273333Y-65841523D01*
X137225714Y-65936761D01*
X137130476Y-65984380D01*
X137035238Y-65984380D01*
X136273333Y-65936761D02*
X136368571Y-65984380D01*
X136559047Y-65984380D01*
X136654285Y-65936761D01*
X136701904Y-65889142D01*
X136749523Y-65793904D01*
X136749523Y-65508190D01*
X136701904Y-65412952D01*
X136654285Y-65365333D01*
X136559047Y-65317714D01*
X136368571Y-65317714D01*
X136273333Y-65365333D01*
X135844761Y-65984380D02*
X135844761Y-64984380D01*
X135416190Y-65984380D02*
X135416190Y-65460571D01*
X135463809Y-65365333D01*
X135559047Y-65317714D01*
X135701904Y-65317714D01*
X135797142Y-65365333D01*
X135844761Y-65412952D01*
%TO.C,U4*%
X147366524Y-73660000D02*
X147136714Y-73889810D01*
X142240000Y-68533476D02*
X142399099Y-68692575D01*
X142240000Y-68533476D02*
X142010190Y-68763286D01*
X137113476Y-73660000D02*
X137343286Y-73430190D01*
X137113476Y-73660000D02*
X137343286Y-73889810D01*
X142240000Y-78786524D02*
X142010190Y-78556714D01*
X142240000Y-78786524D02*
X142469810Y-78556714D01*
X147366524Y-73660000D02*
X147136714Y-73430190D01*
X142399099Y-68692575D02*
X143406726Y-67684948D01*
%TD*%
M02*
